<svg width="16" height="16" viewBox="0 0 16 16" fill="none" xmlns="http://www.w3.org/2000/svg">
<path d="M8.12966 10.3837L5.64652 8.43565C5.85415 9.54996 6.82832 10.3954 8.00262 10.3954C8.04714 10.3962 8.08715 10.3862 8.12966 10.3837ZM8.00212 11.5965C6.01412 11.5965 4.4012 9.98308 4.4012 8.01803C4.4012 7.84826 4.42846 7.68594 4.42871 7.5224L2.0326 5.60486C1.58823 6.19878 1.20063 6.85621 0.887053 7.57016C0.839291 7.68044 0.777775 7.87049 0.777775 7.99553C0.777775 8.11999 0.81686 8.31062 0.864522 8.4214C2.22112 11.5073 4.90556 13.5753 7.97884 13.5753C9.11563 13.5753 10.1987 13.288 11.1822 12.7716L9.31919 11.3112C8.90486 11.499 8.45474 11.5965 8.00212 11.5965ZM15.7741 13.3245L13.186 11.2962C13.9704 10.497 14.6306 9.52695 15.1167 8.4429C15.1644 8.33212 15.2034 8.14107 15.2034 8.01703C15.2034 7.8926 15.1644 7.70195 15.1167 7.59117C13.7601 4.50531 11.0757 2.43723 8.00237 2.43723C6.43472 2.43723 4.9716 2.98589 3.73128 3.92815L0.970574 1.72169C0.860546 1.63574 0.730013 1.59375 0.60098 1.59375C0.422934 1.59375 0.246114 1.67272 0.128133 1.82354C-0.0765939 2.08461 -0.0311573 2.46197 0.22986 2.66627L15.0111 14.247C15.2737 14.4521 15.6506 14.4054 15.8536 14.1451C16.0817 13.9072 16.0342 13.5296 15.7741 13.3245ZM11.5805 7.99553C11.5805 8.61695 11.4129 9.19536 11.1317 9.70275L10.1677 8.94679C10.2987 8.65471 10.3801 8.33612 10.3801 7.99453C10.3801 6.69167 9.30483 5.59386 8.002 5.59386C7.94446 5.59459 7.86259 5.60495 7.79042 5.61301C7.9221 5.84493 7.97962 6.11 7.97962 6.39508C7.97962 6.6494 7.91558 6.88697 7.80905 7.09928L5.59151 5.34229C6.22817 4.75763 7.06989 4.39378 8.00262 4.39378C9.99013 4.39453 11.5805 6.00998 11.5805 7.99553Z" fill="#FFFFFF"/>
</svg>