<svg width="16" height="16" viewBox="0 0 16 16" fill="none" xmlns="http://www.w3.org/2000/svg">
<path d="M15.9028 7.50306C14.3972 4.0994 11.4139 1.78125 8 1.78125C4.58611 1.78125 1.6025 4.10218 0.0963611 7.50306C0.0434167 7.6502 0 7.86119 0 8C0 8.13817 0.0433889 8.3498 0.0963611 8.47279C1.60333 11.9006 4.58611 14.2188 8 14.2188C11.4139 14.2188 14.3972 11.8984 15.9028 8.49694C15.9556 8.3498 16 8.11383 16 8C16 7.86119 15.9556 7.6502 15.9028 7.50306ZM12 8C12 10.2057 10.2092 11.9978 8.00278 11.9978C5.79444 11.9978 4 10.2071 4 8C4 5.7929 5.79167 4.00223 8 4.00223C10.2083 4.00223 12 5.7929 12 8ZM8 5.33482C7.93611 5.33482 7.84444 5.34593 7.76389 5.35703C7.91111 5.61244 8 5.90672 8 6.22321C8 7.20461 7.20417 8 6.22222 8C5.90556 8 5.58611 7.90838 5.35278 7.76402C5.34444 7.84731 5.33333 7.93337 5.33333 8C5.33333 9.44641 6.52778 10.6652 8 10.6652C9.47222 10.6652 10.6667 9.47168 10.6667 8.00028C10.6667 6.52888 9.44722 5.33482 8 5.33482Z" fill="#D9D9D9"/>
</svg>
